<svg width="64" height="64" viewBox="0 0 64 64" fill="none" xmlns="http://www.w3.org/2000/svg">
<path d="M31.9998 59.3215C46.9195 59.3215 59.3214 46.9464 59.3214 32C59.3214 17.0804 46.8928 4.67853 31.9731 4.67853C17.0266 4.67853 4.67847 17.0804 4.67847 32C4.67847 46.9464 17.0534 59.3215 31.9998 59.3215ZM31.9998 54.7679C19.357 54.7679 9.2587 44.6429 9.2587 32C9.2587 19.3839 19.3302 9.23213 31.9731 9.23213C44.5891 9.23213 54.7409 19.3839 54.7678 32C54.7947 44.6429 44.616 54.7679 31.9998 54.7679ZM20.2141 44.134H43.732C46.5445 44.134 48.0177 42.7143 48.0177 39.9286V25.625C48.0177 22.8125 46.5445 21.3929 43.732 21.3929H40.5177C39.4462 21.3929 39.1249 21.2054 38.5088 20.5089L37.4106 19.2768C36.7409 18.5268 36.0445 18.125 34.6516 18.125H29.1874C27.7945 18.125 27.0981 18.5268 26.4016 19.2768L25.3034 20.5089C24.6873 21.1518 24.3659 21.3929 23.2945 21.3929H20.2141C17.3481 21.3929 15.9017 22.8125 15.9017 25.625V39.9286C15.9017 42.7143 17.3481 44.134 20.2141 44.134ZM31.8123 40.3303C27.3659 40.3303 23.7499 36.7679 23.7499 32.2679C23.7499 27.8214 27.3659 24.259 31.8123 24.259C36.2588 24.259 39.8212 27.8214 39.8212 32.2679C39.8212 36.8482 36.2588 40.3303 31.8123 40.3303ZM42.3392 28.7054C41.3481 28.7054 40.5177 27.9018 40.5177 26.8839C40.5177 25.8661 41.3481 25.0625 42.3392 25.0625C43.3302 25.0625 44.1338 25.8661 44.1338 26.8839C44.1605 27.9018 43.3302 28.7054 42.3392 28.7054ZM31.8123 38C34.9462 38 37.5177 35.4553 37.5177 32.2679C37.5177 29.1072 34.9462 26.5625 31.8123 26.5625C28.6516 26.5625 26.0802 29.1072 26.0802 32.2679C26.0802 35.4553 28.6516 38 31.8123 38Z" fill="#4793AF"/>
</svg>
